<?xml version="1.0" encoding="utf-8"?>
<!-- Generator: Adobe Illustrator 17.0.0, SVG Export Plug-In . SVG Version: 6.00 Build 0)  -->
<!DOCTYPE svg PUBLIC "-//W3C//DTD SVG 1.1//EN" "http://www.w3.org/Graphics/SVG/1.1/DTD/svg11.dtd">
<svg version="1.1" id="logo" xmlns="http://www.w3.org/2000/svg" xmlns:xlink="http://www.w3.org/1999/xlink" x="0px" y="0px"
	 width="900px" height="900px" viewBox="0 0 900 900" enable-background="new 0 0 900 900" xml:space="preserve">
<g id="letters" class="logo-animation">
	<path d="M465.15,119.431c2.424-12.496,21.008-9.912,18.393,3.567l-9.857,50.826c-10.184,52.511-94.847,36.092-84.664-16.42
		l9.857-50.826c2.45-12.637,20.952-9.631,18.393,3.567l-9.857,50.826c-5.364,27.659,42.187,38.629,47.878,9.285L465.15,119.431z"/>
	<path d="M525.746,140.822c2.807-4.316,6.496-7.888,12.73-3.833c4.316,2.808,4.573,4.51,5.783,9.733l7.397,75.446l30.258-46.516
		c2.573-3.956,8.857-6.01,12.934-3.359c4.316,2.808,5.704,9.853,3.131,13.809l-43.906,67.496c-3.432,5.275-7.994,5.208-11.735,4.139
		c-4.196-2.729-5.61-5.014-6.981-10.513l-6.929-76.166l-30.102,46.277c-3.432,5.275-8.618,6.167-12.934,3.359
		c-4.317-2.808-6.203-8.3-2.772-13.575L525.746,140.822z"/>
	<path d="M581.171,297.471c0.266-5.244,3.603-10.098,10.255-10.212l90.116,1.019c8.506,0.082,13.349,9.174,7.898,15.878
		l-53.874,71.842c-7.377,10.218-23.023-1.327-15.328-10.905l8.466-11.239l-23.503-47.251l-14.007,0.099
		C585.82,306.819,582.568,302.527,581.171,297.471z M641.084,336.355l24.431-30.202l-39.463-0.018L641.084,336.355z"/>
	<path d="M711.912,380.346c5.133-0.398,10.213,0.355,10.788,7.77c0.398,5.134-0.797,6.374-4.206,10.512l-55.374,51.781l55.329-4.293
		c4.706-0.365,10.161,3.372,10.537,8.22c0.398,5.133-4.348,10.523-9.054,10.888l-80.284,6.23c-6.275,0.487-8.998-3.176-10.427-6.795
		c-0.387-4.991,0.566-7.504,4.095-11.937l56.23-51.848l-55.044,4.271c-6.275,0.487-10.138-3.087-10.537-8.22
		c-0.398-5.134,2.813-9.973,9.087-10.46L711.912,380.346z"/>
	<path d="M616.377,530.238c2.098-4.228,6.693-7.696,12.33-4.899l72.771,36.108c4.613,2.289,5.655,8.554,3.557,12.782l-14.558,29.339
		c-29.053,58.55-117.075,13.277-89.23-42.838L616.377,530.238z M685.4,574.545l-57.397-28.48l-10.553,21.267
		c-17.164,34.592,39.47,64.61,57.397,28.48L685.4,574.545z"/>
	<path d="M566.638,614.858c3.644-3.432,9.103-3.269,12.535,0.375l55.703,59.138c3.53,3.748,3.269,9.103-0.375,12.535l-37.378,35.207
		c-9.579,9.022-22.119-4.709-12.749-13.535l29.986-28.244l-14.71-15.617l-26.237,24.713c-9.266,8.728-22.113-4.911-12.847-13.639
		l26.237-24.713l-14.71-15.617l-31.755,29.911c-9.474,8.924-23.05-4.029-12.847-13.639L566.638,614.858z"/>
	<path d="M497.312,725.33c6.475,16.817-20.62,27.251-27.096,10.433l-1.388-3.603c-6.425-16.685,20.311-28.052,27.096-10.433
		L497.312,725.33z"/>
	<path d="M406.807,752.279c-1.186,27.577-19.495,50.553-52.358,49.14c-12.431-0.535-22.13-4.673-32.174-14.124
		c-3.704-3.738-3.862-10.044,0.168-13.878c4.005-3.264,9.845-2.584,13.127,0.994c5.594,6.395,11.522,8.368,19.666,8.719
		c22.004,0.946,33.247-14.174,33.997-31.606c0.762-17.718-8.969-34.455-31.116-35.408c-8.144-0.35-15.859,2.611-22.683,8.187
		c-4.577,3.239-10.647,1.26-13.072-2.28c-2.151-3.241-3.067-8.577,2.149-13.363c10.401-8.857,22.483-10.199,34.343-9.689
		C393.432,700.456,407.993,724.702,406.807,752.279z"/>
	<path d="M268.39,674.716c24.398,10.302,41.673,37.964,26.659,69.625c-15.075,31.791-47.302,35.661-71.209,24.325
		c-22.064-11.887-38.298-38.738-23.775-69.366C214.588,668.673,245.775,663.992,268.39,674.716z M233.228,752.541
		c14.474,6.863,35.081,4.13,44.763-16.289c9.621-20.289-1.243-38.104-15.717-44.967c-14.861-7.047-35.659-4.246-45.28,16.043
		C207.312,727.747,218.366,745.493,233.228,752.541z"/>
	<path d="M103.903,655.754c-9.563,8.401-22.681-5.014-12.365-14.077l38.898-34.17c40.187-35.303,97.107,29.491,56.919,64.794
		l-38.898,34.17c-9.671,8.495-22.466-5.203-12.365-14.076l38.898-34.17c21.168-18.596-9.731-56.369-32.188-36.641L103.903,655.754z"
		/>
	<path d="M70.214,604.62c-4.383,1.751-9.588-0.482-11.445-5.13c-1.698-4.25,0.587-9.322,4.97-11.073l66.538-26.591l-14.436-36.124
		c-5.202-13.015,12.091-20.234,17.398-6.952l17.568,43.96c1.858,4.648,0.024,9.694-4.758,11.604L70.214,604.62z"/>
	<path d="M127.304,492.59c0.356,4.993-3.221,9.12-8.214,9.475l-81.028,5.777c-5.136,0.366-9.119-3.222-9.475-8.214l-3.651-51.212
		c-0.936-13.125,17.63-14.162,18.545-1.323l2.929,41.084l21.398-1.526l-2.563-35.949c-0.905-12.696,17.783-14.029,18.688-1.332
		l2.563,35.948l21.398-1.526l-3.102-43.509c-0.926-12.982,17.691-15.313,18.688-1.332L127.304,492.59z"/>
	<path d="M55.218,331.785c-12.236-3.508-8.035-21.795,5.164-18.011l49.771,14.27c51.421,14.743,27.651,97.649-23.77,82.906
		l-49.771-14.27c-12.374-3.548-7.76-21.717,5.164-18.011l49.771,14.27c27.085,7.766,42.177-38.645,13.442-46.884L55.218,331.785z"/>
	<path d="M156.608,307.559c9.919,7.511-1.222,22.935-11.255,15.336l-64.761-49.04c-3.991-3.022-4.624-8.345-1.775-12.108
		l22.966-30.328c21.93-28.96,65.185-5.533,56.572,25.976l29.954-1.177c13.269,0.719,12.727,18.966-1.119,19.245l-37.665-1.433
		l-13.555,17.9L156.608,307.559z M122.859,282.003l16.663-22.005c11.224-14.822-12.029-33.865-23.943-18.131l-16.663,22.005
		L122.859,282.003z"/>
	<path d="M164.004,195.418c-12.581-24.949,19.59-52.266,44.418-50.527c12.453,1.187,10.74,17.248,0.11,16.741
		c-12.536,0.241-34.305,10.888-28.594,24.948c9.735,21.687,54.178-23.881,74.354,8.389c19.228,30.839-24.176,60.622-49.636,57.93
		c-6.067-0.613-9.424-5.938-9.41-10.579c1.047-5.154,3.793-8.518,10.059-7.865c14.201,0.2,42.677-11.458,33.249-29.575
		C225.313,188.259,182.741,231.73,164.004,195.418z"/>
	<path d="M304.809,156.321c-3.424-17.693,25.08-23.209,28.505-5.517l0.734,3.791c3.397,17.552-24.918,24.052-28.505,5.517
		L304.809,156.321z"/>
</g>
<path id="left-eye" fill="none" stroke="#000000" stroke-width="20" stroke-linecap="round" stroke-linejoin="round" stroke-miterlimit="10" d="
	M298.222,304.908c0,0-41.219-11.497-68.146,36.569"/>
<path id="face" fill="none" stroke="#000000" stroke-width="20" stroke-linecap="round" stroke-linejoin="round" stroke-miterlimit="10" d="
	M324.434,247.443c11.074-25.039-98.854,214.761-96.588,227.972c3.964,23.111,70.313,31.449,96.06,13.211
	c25.747-18.237,1.839-60.521-16.552-35.701c-10.981,14.82-9.495,99.385-5.696,145.988c0,0,13.812-27.368,22.649-28.437
	c8.647-1.046,15.496,23.177,15.496,23.177s24.669-32.179,35.945-35.442c24.569-7.111,73.884,45.469,73.884,45.469
	c-66.254,14.255-157.108,13.191-157.108,13.191s61.399,75.694,109.321,19.844"/>
<path id="right-eye" fill="none" stroke="#000000" stroke-width="20" stroke-linecap="round" stroke-linejoin="round" stroke-miterlimit="10" d="
	M375.748,312.113c27.455-44.438,89.48-47.391,105.724,12.032"/>
<rect id="white-rect" x="418" y="413" fill="#FFFFFF" width="457" height="94"/>
<circle id="cheek" class="fill-color-cycle" fill="#E90600" cx="472.686" cy="458.033" r="32.283"/>
<g id="organik">
	<path d="M532.293,484.226c0,7.664-11.718,7.929-11.718,0.176v-50.039c0-3.084,2.379-5.374,5.286-5.374h23.433
		c22.378,0,26.958,29.953,8.282,37.441l11.717,14.272c4.582,6.783-4.581,13.303-9.867,6.608l-13.303-19.029h-13.831V484.226z
		 M532.293,458.149h17.002c11.453,0,12.158-18.5,0-18.5h-17.002V458.149z"/>
	<path d="M632.104,483.169c-6.255,5.197-13.919,7.4-21.672,7.4c-18.5,0-31.627-10.572-31.627-31.539
		c0-17.796,13.831-31.627,32.42-31.627c6.96,0,14.624,2.379,20.087,7.753c5.374,5.285-2.379,13.126-7.665,8.457
		c-3.259-3.172-7.84-5.551-12.421-5.551c-10.66,0-20.967,8.546-20.967,20.967c0,13.038,8.634,20.967,20.174,20.967
		c5.375,0,9.955-1.586,13.214-3.964v-10.836h-13.214c-7.841,0-7.048-10.748,0-10.748h17.62c3.26,0,6.255,2.467,6.255,5.198v18.764
		C634.306,479.997,633.602,481.495,632.104,483.169z"/>
	<path d="M645.844,489.952c-2.819-1.586-4.582-4.757-2.819-8.457l25.284-49.423c2.379-4.669,8.722-4.845,10.925,0l24.843,49.423
		c3.612,6.871-7.048,12.334-10.219,5.462l-3.877-7.753h-32.507l-3.789,7.753C652.276,489.952,649.016,490.569,645.844,489.952z
		 M683.726,467.575l-9.955-21.76l-10.835,21.76H683.726z"/>
	<path d="M712.179,435.156c0-3.172,0.705-6.255,5.286-6.255c3.171,0,3.876,0.793,6.255,3.083l29.16,36.473v-34.182
		c0-2.907,2.555-6.079,5.551-6.079c3.171,0,6.255,3.172,6.255,6.079v49.599c0,3.876-2.379,5.374-4.67,6.078
		c-3.083,0-4.581-0.705-7.136-3.084l-29.16-37v34.006c0,3.876-2.379,6.078-5.55,6.078c-3.172,0-5.991-2.203-5.991-6.078V435.156z"/>
	<path d="M777.544,434.274c0-7.224,11.629-7.488,11.629,0v50.304c0,7.311-11.629,7.488-11.629,0V434.274z"/>
	<path d="M822.208,462.994l-8.369,9.25v12.334c0,7.311-11.629,7.4-11.629,0c0-16.915,0-33.301,0-50.304
		c0-7.488,11.629-7.753,11.629,0v22.376l25.46-26.253c3.083-2.907,6.167-2.203,8.369,0c2.466,2.379,2.466,5.462,0,7.841
		c-5.198,6.167-11.276,11.629-16.915,17.795l20.614,24.932c5.286,7.311-5.99,12.598-9.514,6.96L822.208,462.994z"/>
</g>
</svg>
