<svg class="fill-color-cycle icon-link" width="34" height="34" viewBox="0 0 34 34" fill="none" xmlns="http://www.w3.org/2000/svg">
<g clip-path="url(#clip0)">
<path d="M31.3848 28.7693L31.3848 31.3846L28.7694 31.3846L28.7694 28.7693L31.3848 28.7693Z"/>
<path d="M34 5.23083L34 28.7693L31.3846 28.7693L31.3846 5.23083L34 5.23083Z"/>
<path d="M31.3848 2.61533L31.3848 5.23071L28.7694 5.23071L28.7694 2.61533L31.3848 2.61533Z"/>
<path d="M28.769 31.3846L28.769 34L5.23058 34L5.23058 31.3846L28.769 31.3846Z"/>
<path d="M5.23096 28.7693L5.23096 31.3846L2.61558 31.3846L2.61558 28.7693L5.23096 28.7693Z"/>
<path d="M2.61523 5.23083L2.61523 28.7693L-0.000146866 28.7693L-0.000147895 5.23083L2.61523 5.23083Z"/>
<path d="M5.23096 2.61533L5.23096 5.23071L2.61558 5.23071L2.61558 2.61533L5.23096 2.61533Z"/>
<path d="M28.769 -2.67029e-05L28.769 2.61536L5.23058 2.61536L5.23058 -2.5674e-05L28.769 -2.67029e-05Z"/>
<path d="M20.9229 13.0769L20.9229 20.9231L13.0767 20.9231L13.0767 13.0769L20.9229 13.0769Z"/>
<path d="M28.769 10.4616L28.769 23.5385L28.769 26.1539L28.769 28.7693L5.23058 28.7693L5.23058 26.1539L5.23058 23.5385L5.23058 5.23083L7.84597 5.23083L20.9229 5.23083L23.5383 5.23083L26.1537 5.23083L28.769 5.23083L28.769 7.84621L28.769 10.4616ZM20.9229 10.4616L13.0767 10.4616L13.0767 13.077L10.4614 13.077L10.4614 20.9231L13.0767 20.9231L13.0767 23.5385L20.9229 23.5385L20.9229 20.9231L23.5383 20.9231L23.5383 13.077L20.9229 13.077L20.9229 10.4616ZM23.5383 7.84621L23.5383 10.4616L26.1537 10.4616L26.1537 7.84621L23.5383 7.84621Z"/>
</g>
<defs>
<clipPath id="clip0">
<rect width="34" height="34" fill="white" transform="matrix(-4.37114e-08 -1 -1 4.37114e-08 34 34)"/>
</clipPath>
</defs>
</svg>
