<?xml version="1.0" encoding="utf-8"?>
<!-- Generator: Adobe Illustrator 17.0.0, SVG Export Plug-In . SVG Version: 6.00 Build 0)  -->
<!DOCTYPE svg PUBLIC "-//W3C//DTD SVG 1.1//EN" "http://www.w3.org/Graphics/SVG/1.1/DTD/svg11.dtd">
<svg version="1.1" xmlns="http://www.w3.org/2000/svg" xmlns:xlink="http://www.w3.org/1999/xlink" x="0px" y="0px" width="200px"
	 height="200px" viewBox="0 0 900 900" enable-background="new 0 0 900 900" xml:space="preserve">
<g id="Calque_1">
	<circle class="fill-color-cycle" cx="448.622" cy="461.197" r="360.927"/>
	<path fill="none" d="M212.563,422.444c15.242,109.345,155.862,246.422,325.36,174.285
		c106.408-45.286,145.296-225.807,37.775-347.251c-79.914-90.262-182.009-219.083-396.833-63.635
		C69.52,264.966-38.707,513.972,112.469,695.206c317.66,380.823,1020.641-24.026,579.851-563.791"/>
	<text transform="matrix(0.633 0.7742 -0.7742 0.633 214.8269 469.8174)" display="none"><tspan x="0" y="0" display="inline" fill="#FFFFFF" font-family="'Coyote-SemiBoldDEMO'" font-size="187.2216">U</tspan><tspan x="225.465" y="-36.331" display="inline" fill="#FFFFFF" font-family="'Coyote-SemiBoldDEMO'" font-size="187.2216" rotate="-54.71">n</tspan><tspan x="306.296" y="-255.687" display="inline" fill="#FFFFFF" font-family="'Coyote-SemiBoldDEMO'" font-size="187.2216" rotate="-118.997"> </tspan><tspan x="212.851" y="-390.118" display="inline" fill="#FFFFFF" font-family="'Coyote-SemiBoldDEMO'" font-size="187.2216" rotate="-165.53">a</tspan><tspan x="9.813" y="-423.402" display="inline" fill="#FFFFFF" font-family="'Coyote-SemiBoldDEMO'" font-size="187.2216" rotate="168.022">n</tspan><tspan x="-191.87" y="-335.555" display="inline" fill="#FFFFFF" font-family="'Coyote-SemiBoldDEMO'" font-size="187.2216" rotate="115.017"> </tspan><tspan x="-243.324" y="-216.848" display="inline" fill="#FFFFFF" font-family="'Coyote-SemiBoldDEMO'" font-size="187.2216" rotate="89.74">d</tspan><tspan x="-222.895" y="-17.226" display="inline" fill="#FFFFFF" font-family="'Coyote-SemiBoldDEMO'" font-size="187.2216" rotate="59.489">e</tspan><tspan x="-130.041" y="122.778" display="inline" fill="#FFFFFF" font-family="'Coyote-SemiBoldDEMO'" font-size="187.2216" rotate="38.581"> </tspan><tspan x="-18.985" y="209.473" display="inline" fill="#FFFFFF" font-family="'Coyote-SemiBoldDEMO'" font-size="187.2216" rotate="6.718">C</tspan><tspan x="204.051" y="221.221" display="inline" fill="#FFFFFF" font-family="'Coyote-SemiBoldDEMO'" font-size="187.2216" rotate="-25.554">o</tspan><tspan x="398.609" y="110.565" display="inline" fill="#FFFFFF" font-family="'Coyote-SemiBoldDEMO'" font-size="187.2216" rotate="-54.296">u</tspan><tspan x="496.939" y="-39.877" display="inline" fill="#FFFFFF" font-family="'Coyote-SemiBoldDEMO'" font-size="187.2216" rotate="-77.092">l</tspan><tspan x="528.66" y="-207.368" display="inline" fill="#FFFFFF" font-family="'Coyote-SemiBoldDEMO'" font-size="187.2216" rotate="-101.45">e</tspan><tspan x="482.13" y="-384.403" display="inline" fill="#FFFFFF" font-family="'Coyote-SemiBoldDEMO'" font-size="187.2216" rotate="-131.665">u</tspan><tspan x="351.082" y="-514.234" display="inline" fill="#FFFFFF" font-family="'Coyote-SemiBoldDEMO'" font-size="187.2216" rotate="-157.777">r</tspan><tspan x="196.906" y="-572.315" display="inline" fill="#FFFFFF" font-family="'Coyote-SemiBoldDEMO'" font-size="187.2216" rotate="-174.242">s</tspan></text>
	<path fill="none" d="M212.563,391.139c15.242,109.345,155.862,246.422,325.36,174.285
		c106.408-45.286,145.296-225.807,37.775-347.251C495.784,127.912,393.689-0.91,178.865,154.539
		C69.52,233.662-38.707,482.667,112.469,663.901c317.66,380.823,1020.641-24.026,579.851-563.791"/>
	<text transform="matrix(0.633 0.7742 -0.7742 0.633 214.8273 438.5123)" display="none"><tspan x="0" y="0" display="inline" font-family="'Coyote-SemiBoldDEMO'" font-size="187.2216">U</tspan><tspan x="225.464" y="-36.332" display="inline" font-family="'Coyote-SemiBoldDEMO'" font-size="187.2216" rotate="-54.711">n</tspan><tspan x="306.294" y="-255.689" display="inline" font-family="'Coyote-SemiBoldDEMO'" font-size="187.2216" rotate="-118.997"> </tspan><tspan x="212.845" y="-390.115" display="inline" font-family="'Coyote-SemiBoldDEMO'" font-size="187.2216" rotate="-165.527">a</tspan><tspan x="9.809" y="-423.4" display="inline" font-family="'Coyote-SemiBoldDEMO'" font-size="187.2216" rotate="168.023">n</tspan><tspan x="-191.873" y="-335.553" display="inline" font-family="'Coyote-SemiBoldDEMO'" font-size="187.2216" rotate="115.016"> </tspan><tspan x="-243.327" y="-216.845" display="inline" font-family="'Coyote-SemiBoldDEMO'" font-size="187.2216" rotate="89.74">d</tspan><tspan x="-222.895" y="-17.223" display="inline" font-family="'Coyote-SemiBoldDEMO'" font-size="187.2216" rotate="59.488">e</tspan><tspan x="-130.04" y="122.78" display="inline" font-family="'Coyote-SemiBoldDEMO'" font-size="187.2216" rotate="38.58"> </tspan><tspan x="-18.983" y="209.473" display="inline" font-family="'Coyote-SemiBoldDEMO'" font-size="187.2216" rotate="6.717">C</tspan><tspan x="204.053" y="221.219" display="inline" font-family="'Coyote-SemiBoldDEMO'" font-size="187.2216" rotate="-25.554">o</tspan><tspan x="398.61" y="110.561" display="inline" font-family="'Coyote-SemiBoldDEMO'" font-size="187.2216" rotate="-54.297">u</tspan><tspan x="496.938" y="-39.882" display="inline" font-family="'Coyote-SemiBoldDEMO'" font-size="187.2216" rotate="-77.092">l</tspan><tspan x="528.658" y="-207.373" display="inline" font-family="'Coyote-SemiBoldDEMO'" font-size="187.2216" rotate="-101.451">e</tspan><tspan x="482.127" y="-384.407" display="inline" font-family="'Coyote-SemiBoldDEMO'" font-size="187.2216" rotate="-131.666">u</tspan><tspan x="351.077" y="-514.237" display="inline" font-family="'Coyote-SemiBoldDEMO'" font-size="187.2216" rotate="-157.778">r</tspan><tspan x="196.901" y="-572.317" display="inline" font-family="'Coyote-SemiBoldDEMO'" font-size="187.2216" rotate="-174.242">s</tspan></text>
	<g>
		<path fill="#FFFFFF" d="M263.44,454.292l63.926-52.197l17.607,21.563l-63.925,52.199c-16.823,13.736-18.192,21.737-7.078,35.348
			c9.99,12.235,19.395,12.202,35.3-0.784l63.926-52.2l17.732,21.717l-63.926,52.2c-27.834,22.726-54.519,21.576-74.75-3.201
			C231.025,502.937,234.841,477.644,263.44,454.292z"/>
		<path fill="#FFFFFF" d="M399.571,488.825l28.563-1.935l49.816,78.16l-5.493-81.159l27.776-1.882l9.32,137.697l-28.76,1.947
			l-49.633-78.37l5.507,81.357l-27.777,1.88L399.571,488.825z"/>
		<path fill="#FFFFFF" d="M504.6,373.444l-10.508-22.983l105.63-102.789l12.231,26.756l-20.757,20.129l19.129,41.839l28.885-2.351
			l12.232,26.756L504.6,373.444z M572.349,313.161l-29.726,29.005l41.466-3.326L572.349,313.161z"/>
		<path fill="#FFFFFF" d="M447.133,287.086l-22.272-17.986l16.544-91.197l-51.106,63.288l-21.658-17.491l86.705-107.371
			l22.428,18.109l-16.822,91.227l51.229-63.442l21.66,17.491L447.133,287.086z"/>
		<path fill="#FFFFFF" d="M285.617,250.367l-33.234,27.042c-29.404,23.929-73.014,19.45-96.941-9.955
			c-24.052-29.557-19.574-73.167,9.83-97.095l33.233-27.043L285.617,250.367z M182.969,192.106
			c-17.612,14.331-20.265,40.165-5.933,57.776c14.207,17.459,40.039,20.112,57.652,5.781l11.792-9.596l-51.718-63.557
			L182.969,192.106z"/>
		<path fill="#FFFFFF" d="M192.914,342.556l-32.162,81.122l-25.878-10.259l21.903-55.244l-33.772-13.39l-16.517,41.663
			l-23.125-9.168l16.517-41.661l-19.638-7.787L56.74,387.113L30.679,376.78l33.762-85.159L192.914,342.556z"/>
		<path fill="#FFFFFF" d="M89.205,569.166c32.86-19.294,75.016-8.329,94.311,24.529c13.097,22.305,12.664,50.033-1.257,71.947
			l-23.974-14.314c8.659-13.327,9.123-30.086,1.226-43.536c-11.498-19.579-36.729-26.286-56.309-14.788
			c-19.58,11.495-26.016,36.798-14.519,56.378c8.098,13.79,23.228,21.621,39.596,20.253l1.16,27.708
			c-26.229,2.123-51.536-10.951-64.933-33.765C45.31,630.888,56.345,588.462,89.205,569.166z"/>
		<path fill="#FFFFFF" d="M197.62,720.549c17.977-33.602,59.84-46.139,93.441-28.166c33.428,17.883,46.14,59.841,28.257,93.27
			c-17.975,33.602-59.933,46.313-93.36,28.43C192.356,796.107,179.551,754.324,197.62,720.549z M294.771,772.52
			c10.618-19.847,2.913-44.795-16.935-55.413c-20.022-10.711-45.05-3.275-55.667,16.574c-10.71,20.023-3.007,44.968,17.015,55.679
			C259.032,799.978,284.059,792.542,294.771,772.52z"/>
		<path fill="#FFFFFF" d="M382.684,808.75l-1.188-82.528l27.837-0.4l1.189,82.526c0.313,21.718,5.731,27.762,23.303,27.509
			c15.794-0.229,21.612-7.618,21.317-28.153l-1.189-82.525l28.036-0.404l1.189,82.526c0.516,35.932-16.964,56.13-48.949,56.589
			C400.665,864.375,383.216,845.669,382.684,808.75z"/>
		<path fill="#FFFFFF" d="M514.405,716.145l25.501-11.165l44.343,101.281l54.982-24.072l11.244,25.68l-80.48,35.238L514.405,716.145
			z"/>
		<path fill="#FFFFFF" d="M622.426,663.195l58.995-64.309l20.516,18.82l-40.177,43.793l26.772,24.56l30.299-33.028l18.332,16.821
			l-30.3,33.024l15.57,14.283l43.112-46.994l20.661,18.952l-61.933,67.508L622.426,663.195z"/>
		<path fill="#FFFFFF" d="M779.443,589.736l-80.529-18.096l6.105-27.164l80.527,18.096c21.192,4.762,28.334,0.902,32.185-16.243
			c3.463-15.412-2.366-22.793-22.402-27.296l-80.525-18.094l6.146-27.358l80.528,18.096c35.061,7.878,50.624,29.59,43.61,60.798
			C837.729,585.226,815.469,597.831,779.443,589.736z"/>
		<path fill="#FFFFFF" d="M717.923,443.505l-11.794-45.486c-4.956-19.112,5.784-50.857,38.655-59.38
			c17.966-4.657,34.762-0.446,46.789,11.325l36.646-31.732l6.985,26.948l-31.654,27.379l5.046,18.68l36.122-9.365l6.985,26.947
			L717.923,443.505z M775.61,375.722c-0.049-0.191-4.678-14.901-23.79-9.946c-17.964,4.659-20.081,20.097-18.744,25.256
			l4.807,18.538l43.573-11.296L775.61,375.722z"/>
		<path fill="#FFFFFF" d="M772.865,266.321l-24.063-13.973c6.515-9.776,6.123-19.491-1.196-31.447
			c-8.688-13.432-18.574-17.102-24.388-8.45c-2.572,4.119-1.856,8.311,3.263,20.455c3.395,8.572,7.409,18.152,7.371,29.055
			c0.015,16.66-10.419,31.381-26.587,37.113c-17.348,6.453-36.735,0.498-50.32-15.261c-17.013-20.604-19.261-44.695-5.821-67.739
			l24.468,13.495c-7.739,13.074-6.821,24.781,2.931,36.172c5.818,6.854,13.055,9.601,19.192,6.771
			c11.986-3.868,8.467-14.908,2.654-28.942c-5.608-13.697-14.152-33.702,2.998-50.683c9.633-9.602,21.207-14.142,32.327-12.615
			c13.592,1.401,26.272,10.771,35.718,25.821C783.989,226.637,784.522,248.304,772.865,266.321z"/>
	</g>
	<g>
		<path d="M263.44,421.278l63.926-52.197l17.607,21.563l-63.925,52.199c-16.823,13.736-18.192,21.737-7.078,35.348
			c9.99,12.235,19.395,12.202,35.3-0.784l63.926-52.2l17.732,21.717l-63.926,52.2c-27.834,22.726-54.519,21.576-74.75-3.201
			C231.025,469.924,234.841,444.631,263.44,421.278z"/>
		<path d="M399.571,455.811l28.563-1.935l49.816,78.16l-5.493-81.159l27.776-1.882l9.32,137.697l-28.76,1.947l-49.633-78.37
			l5.507,81.357l-27.777,1.88L399.571,455.811z"/>
		<path d="M504.6,340.431l-10.508-22.983l105.63-102.789l12.231,26.756l-20.757,20.129l19.129,41.839l28.885-2.351l12.232,26.756
			L504.6,340.431z M572.349,280.148l-29.726,29.005l41.466-3.326L572.349,280.148z"/>
		<path d="M447.133,254.072l-22.272-17.986l16.544-91.197l-51.106,63.288l-21.658-17.491l86.705-107.371l22.428,18.109
			l-16.822,91.227l51.229-63.442l21.66,17.491L447.133,254.072z"/>
		<path d="M285.617,217.353l-33.234,27.042c-29.404,23.929-73.014,19.45-96.941-9.955c-24.052-29.557-19.574-73.167,9.83-97.095
			l33.233-27.043L285.617,217.353z M182.969,159.092c-17.612,14.331-20.265,40.165-5.933,57.776
			c14.207,17.459,40.039,20.112,57.652,5.781l11.792-9.596l-51.718-63.557L182.969,159.092z"/>
		<path d="M192.914,309.542l-32.162,81.122l-25.878-10.259l21.903-55.244l-33.772-13.39l-16.517,41.663l-23.125-9.168l16.517-41.661
			l-19.638-7.787L56.74,354.099l-26.061-10.333l33.762-85.159L192.914,309.542z"/>
		<path d="M89.205,536.152c32.86-19.294,75.016-8.329,94.311,24.529c13.097,22.305,12.664,50.033-1.257,71.947l-23.974-14.314
			c8.659-13.327,9.123-30.086,1.226-43.536c-11.498-19.579-36.729-26.286-56.309-14.788c-19.58,11.495-26.016,36.798-14.519,56.378
			c8.098,13.79,23.228,21.621,39.596,20.253l1.16,27.709c-26.229,2.123-51.536-10.951-64.933-33.766
			C45.31,597.874,56.345,555.448,89.205,536.152z"/>
		<path d="M197.62,687.535c17.977-33.602,59.84-46.139,93.441-28.165c33.428,17.883,46.14,59.84,28.257,93.269
			c-17.975,33.602-59.933,46.313-93.36,28.43C192.356,763.094,179.551,721.31,197.62,687.535z M294.771,739.507
			c10.618-19.847,2.913-44.795-16.935-55.413c-20.022-10.71-45.05-3.275-55.667,16.574c-10.71,20.023-3.007,44.968,17.015,55.679
			C259.032,766.965,284.059,759.528,294.771,739.507z"/>
		<path d="M382.684,775.736l-1.188-82.528l27.837-0.4l1.189,82.526c0.313,21.718,5.731,27.762,23.303,27.509
			c15.794-0.229,21.612-7.618,21.317-28.153l-1.189-82.525l28.036-0.404l1.189,82.526c0.516,35.932-16.964,56.13-48.949,56.589
			C400.665,831.361,383.216,812.655,382.684,775.736z"/>
		<path d="M514.405,683.131l25.501-11.164l44.343,101.281l54.982-24.072l11.244,25.68l-80.48,35.238L514.405,683.131z"/>
		<path d="M622.426,630.181l58.995-64.309l20.516,18.82l-40.177,43.793l26.772,24.56l30.299-33.028l18.332,16.821l-30.3,33.025
			l15.57,14.282l43.112-46.994l20.661,18.953l-61.933,67.507L622.426,630.181z"/>
		<path d="M779.443,556.722l-80.529-18.096l6.105-27.164l80.527,18.096c21.192,4.762,28.334,0.902,32.185-16.243
			c3.463-15.412-2.366-22.793-22.402-27.296l-80.525-18.094l6.146-27.358l80.528,18.096c35.061,7.878,50.624,29.59,43.61,60.798
			C837.729,552.212,815.469,564.817,779.443,556.722z"/>
		<path d="M717.923,410.491l-11.794-45.486c-4.956-19.112,5.784-50.857,38.655-59.38c17.966-4.657,34.762-0.446,46.789,11.325
			l36.646-31.732l6.985,26.948l-31.654,27.379l5.046,18.68l36.122-9.365l6.985,26.947L717.923,410.491z M775.61,342.709
			c-0.049-0.191-4.678-14.901-23.79-9.946c-17.964,4.659-20.081,20.097-18.744,25.256l4.807,18.538l43.573-11.296L775.61,342.709z"
			/>
		<path d="M772.865,233.307l-24.063-13.973c6.515-9.776,6.123-19.491-1.196-31.447c-8.688-13.432-18.574-17.102-24.388-8.45
			c-2.572,4.119-1.856,8.311,3.263,20.455c3.395,8.572,7.409,18.152,7.371,29.055c0.015,16.66-10.419,31.381-26.587,37.113
			c-17.348,6.453-36.735,0.498-50.32-15.261c-17.013-20.604-19.261-44.695-5.821-67.739l24.468,13.495
			c-7.739,13.074-6.821,24.781,2.931,36.172c5.818,6.854,13.055,9.601,19.192,6.771c11.986-3.868,8.467-14.908,2.654-28.942
			c-5.608-13.697-14.152-33.702,2.998-50.683c9.633-9.602,21.207-14.142,32.327-12.615c13.592,1.401,26.272,10.771,35.718,25.821
			C783.989,193.623,784.522,215.29,772.865,233.307z"/>
	</g>
</g>
</svg>
